<?xml version="1.0" encoding="utf-8"?>
<!-- Generator: Adobe Illustrator 21.1.0, SVG Export Plug-In . SVG Version: 6.00 Build 0)  -->
<svg version="1.1" id="Réteg_1" xmlns="http://www.w3.org/2000/svg" xmlns:xlink="http://www.w3.org/1999/xlink" x="0px" y="0px"
	 viewBox="0 0 250.8 339.8" style="enable-background:new 0 0 250.8 339.8;" xml:space="preserve">
<style type="text/css">
	.st0{fill:url(#SVGID_1_);}
	.st1{fill:#007F3E;}
	.st2{fill:#8DC63F;}
</style>
<g>
	<g>
		<radialGradient id="SVGID_1_" cx="239.7501" cy="46.287" r="278.3182" gradientUnits="userSpaceOnUse">
			<stop  offset="0.6914" style="stop-color:#8DC63F"/>
			<stop  offset="0.7572" style="stop-color:#68AE3D"/>
			<stop  offset="0.8982" style="stop-color:#007A33"/>
			<stop  offset="1" style="stop-color:#005826"/>
		</radialGradient>
		<path class="st0" d="M74.5,183.4c-2.1,3.5-3.9,7.1-5.2,10.9c5.4,26,28.5,45.7,56.1,45.7c-14.1,0-25.5-11.5-25.5-25.5
			c0-4.6,1.3-9.2,3.6-13.1c13.9-24.1,44-76.3,49.5-85.7c18.6-35.8-0.1-68.2-0.1-68.2L74.5,183.4L74.5,183.4z"/>
		<path class="st1" d="M204.9,138l0-0.3l-29.6-51.2c-0.5,10.9-3.2,23.1-9.7,35.6l-0.3,0.5l-4.2,7.3l14.1,24.4l-0.1,0.1
			c4.8,8.4,7.6,18.1,7.6,28.5c0,31.6-25.7,57.3-57.3,57.3h0c-31.6,0-57.3-25.7-57.3-57.3c0-10.6,2.9-20.5,7.9-29l0,0L145.1,34
			L125.4,0l-79,136.8l0.1,0c-7.9,13.5-12.5,29.2-12.5,46c0,50.3,41,91.3,91.3,91.3h0c50.3,0,91.3-41,91.3-91.3
			C216.7,166.5,212.4,151.2,204.9,138z"/>
	</g>
	<path class="st2" d="M211.6,244.8c0,0-0.5,0.6-1.3,1.8c-0.9,1.2-2,3-3.9,5c-0.9,1-1.8,2.2-2.9,3.5c-1.1,1.2-2.3,2.5-3.6,3.9
		c-1.4,1.3-2.8,2.7-4.4,4.2c-1.6,1.4-3.4,2.8-5.2,4.3c-3.7,2.8-7.9,5.8-12.6,8.4c-4.6,2.8-9.8,5.2-15.3,7.2
		c-5.5,2.1-11.4,3.6-17.5,4.9c-6.1,1.1-12.4,1.7-18.7,1.8c-1.6,0.1-3.1-0.1-4.7-0.1c-1.6,0-3.1-0.1-4.7-0.3
		c-1.6-0.2-3.1-0.3-4.7-0.5c-1.5-0.2-3.1-0.5-4.6-0.7c-6.1-1.1-12-2.5-17.6-4.6c-1.4-0.5-2.8-1-4.1-1.5c-1.3-0.6-2.7-1.1-4-1.7
		c-2.5-1.3-5.1-2.4-7.4-3.8c-4.8-2.5-8.9-5.5-12.7-8.3c-1.9-1.4-3.6-2.9-5.2-4.2c-1.6-1.5-3.1-2.8-4.5-4.1c-2.7-2.7-5-5.1-6.7-7.2
		c-1.8-2-3-3.8-3.9-5c-0.9-1.2-1.3-1.8-1.3-1.8s0.5,0.6,1.4,1.7c1,1.1,2.3,2.8,4.2,4.7c1.8,2,4.2,4.3,6.9,6.9c1.4,1.2,3,2.5,4.6,3.9
		c1.7,1.3,3.4,2.7,5.3,4c3.8,2.6,8,5.4,12.8,7.8c2.3,1.3,4.8,2.3,7.4,3.5c2.6,1,5.2,2.2,8,3c5.4,2,11.3,3.3,17.3,4.3
		c6,1.1,12.1,1.3,18.3,1.4c6.2,0,12.3-0.6,18.3-1.6c6-1.2,11.8-2.6,17.2-4.6c5.4-2,10.6-4.2,15.2-6.8c4.7-2.5,8.9-5.3,12.6-8
		c1.8-1.4,3.6-2.8,5.2-4.1c1.6-1.4,3.1-2.7,4.5-4c1.3-1.3,2.6-2.6,3.8-3.7c1.2-1.2,2.1-2.3,3-3.3c1.9-2,3.2-3.7,4.1-4.8
		C211.1,245.5,211.6,244.8,211.6,244.8z"/>
	<path class="st1" d="M49.8,278.4l0.3-0.3c1.8-1.9,1.8-4.3-0.1-6.2l-5.6-5.4l-9.2,9.6l4.4,4.2c1.7,1.5,4,1.5,5.5-0.2l0.3-0.3
		l0.3,0.3l-7.3,7.6l-0.3-0.3l0.3-0.3c1.5-1.6,1.5-3.9-0.1-5.5l-4.4-4.2l-7.9,8.3c-1.1,1.2-1,3,0.1,4.1l0.4,0.4l-0.3,0.3l-10-9.6
		l0.3-0.3l0.4,0.4c1.2,1.1,3,1.1,4.1-0.1l17.5-18.4c1-1.1,0.9-2.9-0.2-4l-0.4-0.4l0.3-0.3L51,270c1.4,1.3,3.7,2.8,4.5,3.2l-5.3,5.6
		L49.8,278.4z M76.8,286.6c4.9,2.4,9.6,6.9,6.8,12.8c-2.3,4.8-7.6,6.3-11.7,4c2.8,3.8,3,6.6,4.4,12.8c1.7,8,4.4,14.2,11.7,17.8
		l-0.2,0.4c-6.6,0-16.8-4.2-18.6-18.4c-0.6-4.1-1.3-9.8-1.8-12.9c-0.2-1.6-0.4-3-1.1-3.6l0.2-0.4c0.2,0.1,0.7,0.4,1.3,0.6
		c2,0.9,5.7,1.6,8.2-1.9c0.3-0.4,0.7-0.9,1.1-1.9c1.6-3.8,0.2-7-2.8-8.5l-3.1-1.5l-11.6,23.9c-0.7,1.4-0.1,3.1,1.4,3.9l0.5,0.2
		l-0.2,0.4l-12.5-6.1l0.2-0.4l0.5,0.3c1.4,0.7,3.1,0.1,3.9-1.3l11-22.8c0.7-1.4,0.1-3.2-1.4-3.9l-0.5-0.2l0.2-0.4L76.8,286.6z
		 M106.8,328.5l-13.6-2.4l0.1-0.4l0.6,0.1c1.6,0.3,3.1-0.8,3.4-2.3l4.4-24.9c0.2-1.6-0.8-3-2.4-3.3l-0.6-0.1l0.1-0.5l13.6,2.4
		l-0.1,0.4l-0.6-0.1c-1.6-0.3-3.1,0.7-3.4,2.3l-4.4,24.9c-0.2,1.6,0.8,3.1,2.4,3.3l0.6,0.1L106.8,328.5z M158.7,310.7
		c1.1,10.2-5.1,17.3-16,18.5c-10.9,1.2-18.5-4.3-19.7-14.5c-1.1-10.2,5.1-17.3,16-18.5C149.9,295,157.6,300.5,158.7,310.7z
		 M151.3,311.6c-1-9-5.7-14.1-12-13.4c-6.4,0.7-9.8,6.8-8.7,15.8c1,9,5.7,14.1,12,13.4C148.9,326.6,152.3,320.6,151.3,311.6z
		 M199.8,310.1l-21.3,10.2l-0.2-0.4l0.5-0.2c1.4-0.7,2.1-2.4,1.4-3.9l-11-22.8c-0.7-1.4-2.4-2-3.9-1.3l-0.5,0.3l-0.2-0.4l12.5-6
		l0.2,0.4l-0.5,0.3c-1.4,0.7-2.1,2.4-1.4,3.9l11.6,24l5.4-2.6c4.1-2,5.5-5.8,4.9-10.5l0.4-0.2L199.8,310.1z M233.2,283.5l-17.4,16
		l-0.3-0.3l0.4-0.4c1.2-1.1,1.3-2.9,0.2-4.1l-17.2-18.8c-1.1-1.1-2.8-1.1-4,0l-0.4,0.4l-0.3-0.3l12.9-11.8c1.4-1.3,3.1-3.5,3.5-4.3
		l5.4,5.9l-0.3,0.3l-0.4-0.4c-1.8-2-4.3-2.2-6.4-0.4l-5.7,5.2l9,9.8l4.5-4.1c1.6-1.5,1.7-3.9,0.2-5.5l-0.3-0.3l0.3-0.3l7.1,7.8
		l-0.3,0.3l-0.3-0.3c-1.5-1.6-3.8-1.8-5.4-0.3l-4.5,4.1l8.7,9.5l4.4-4c3.4-3.1,3.6-7.2,1.6-11.5l0.3-0.3L233.2,283.5z"/>
	<g>
		<path class="st2" d="M70.2,327.6c-0.9-0.4-1.9-0.7-2.8-1.1c-1.9-0.8-3.9-1.5-5.7-2.3c-3.7-1.7-7.4-3.3-10.7-5.3
			c-6.9-3.6-13-7.7-18.6-11.6c-2.7-2-5.2-4.1-7.7-6c-2.3-2-4.6-4-6.6-5.8c-2-1.9-3.8-3.7-5.5-5.4c-1.7-1.7-3.1-3.4-4.5-4.8
			c-2.7-2.9-4.6-5.4-6-7c-1.4-1.6-2.1-2.5-2.1-2.5s0.7,0.9,2,2.6c1.3,1.7,3.1,4.3,5.8,7.2c1.3,1.5,2.7,3.2,4.4,4.9
			c1.7,1.7,3.5,3.6,5.4,5.6c2,1.9,4.2,3.9,6.5,6c2.4,2,4.9,4.1,7.6,6.2c5.5,4,11.6,8.3,18.5,12c3.4,2,7.1,3.7,10.8,5.5
			c1.9,0.9,3.8,1.6,5.8,2.4c1.9,0.8,3.8,1.6,5.7,2.2C71.7,329.6,70.9,328.7,70.2,327.6z"/>
		<path class="st2" d="M248.7,278.3c-1.4,1.6-3.3,4.1-6,7c-1.4,1.4-2.8,3.1-4.5,4.8c-1.7,1.7-3.6,3.5-5.5,5.4
			c-2.1,1.8-4.3,3.7-6.6,5.8c-2.5,1.9-5,4-7.7,6c-5.5,3.9-11.6,8-18.6,11.6c-3.4,1.9-7,3.5-10.7,5.3c-1.8,0.9-3.8,1.5-5.7,2.3
			c-1.9,0.8-3.9,1.6-5.9,2.2c-2,0.7-4,1.4-6.1,2c-2.1,0.6-4.2,1.1-6.3,1.7c-2.1,0.6-4.2,1.1-6.4,1.5c-2.2,0.4-4.3,1-6.5,1.3
			c-8.7,1.5-17.8,2.1-26.8,2.3c-9.1-0.1-18.1-0.7-26.8-2.3c-2.2-0.3-4.3-0.9-6.5-1.3c-0.4-0.1-0.8-0.2-1.2-0.2
			c0.1,0.5,0,1.1-0.3,1.6l-0.2,0.4c0,0,0,0,0,0c0.4,0.1,0.8,0.2,1.2,0.3c2.2,0.4,4.4,1,6.6,1.3c8.9,1.6,18.1,2.3,27.1,2.4
			c9.2-0.2,18.3-0.9,27.2-2.4c2.2-0.3,4.4-0.9,6.6-1.3c2.2-0.5,4.4-0.9,6.5-1.6c2.1-0.6,4.2-1.2,6.3-1.8c2.1-0.7,4.1-1.4,6.1-2.1
			c2-0.6,4-1.5,5.9-2.3c1.9-0.8,3.9-1.5,5.8-2.4c3.7-1.8,7.4-3.5,10.8-5.5c6.9-3.7,13-8,18.5-12c2.7-2.1,5.2-4.2,7.6-6.2
			c2.3-2.1,4.5-4.1,6.5-6c1.9-2,3.7-3.9,5.4-5.6c1.7-1.7,3-3.5,4.4-4.9C245.7,282.6,247.4,280.1,248.7,278.3
			c1.4-1.6,2.1-2.5,2.1-2.5S250,276.7,248.7,278.3z"/>
	</g>
</g>
<g>
</g>
<g>
</g>
<g>
</g>
<g>
</g>
<g>
</g>
<g>
</g>
</svg>
